<?xml version="1.0" encoding="UTF-8"?>
<svg id="Layer_1" data-name="Layer 1" xmlns="http://www.w3.org/2000/svg" viewBox="0 0 125 125">
  <g>
    <rect x=".5" y=".5" width="124" height="124" rx="15.5" ry="15.5" style="fill: #fff; stroke-width: 0px;"/>
    <path d="M109,1c8.27,0,15,6.73,15,15v93c0,8.27-6.73,15-15,15H16c-8.27,0-15-6.73-15-15V16C1,7.73,7.73,1,16,1h93M109,0H16C7.2,0,0,7.2,0,16v93C0,117.8,7.2,125,16,125h93c8.8,0,16-7.2,16-16V16C125,7.2,117.8,0,109,0h0Z" style="fill: #c4c4c4; stroke-width: 0px;"/>
  </g>
  <g>
    <path d="M90.17,34.29c-11.06-15.38-32.47-18.91-47.84-7.84-11.01,7.92-16.32,21.56-13.56,34.85l34.46-15.3h-18.85c4.6-9.88,16.35-14.18,26.23-9.58,2.1.97,3.98,2.3,5.62,3.91l13.95-6.03h0Z" style="fill: #036; stroke-width: 0px;"/>
    <polygon points="97.2 32.6 62.77 67.7 18.98 67.7 97.2 32.6" style="fill: #2990ea; stroke-width: 0px;"/>
    <path d="M62.18,74.01c-4.62,0-9.12-1.58-12.72-4.52h-18.39c8.84,17.22,29.96,24.04,47.18,15.2,6.84-3.52,12.37-9.2,15.69-16.14h-17.88c-3.75,3.52-8.71,5.47-13.87,5.47h0Z" style="fill: #036; stroke-width: 0px;"/>
    <g>
      <path d="M26.23,101.17h-3.14v2.45h3.5v1.25h-5.03v-8.3h4.85v1.25h-3.32v2.15h3.14v1.2h0Z" style="fill: #036; stroke-width: 0px;"/>
      <path d="M29.43,96.54v4.83c0,1.63.69,2.38,1.71,2.38,1.1,0,1.74-.77,1.74-2.38v-4.83h1.51v4.75c0,2.56-1.33,3.7-3.32,3.7s-3.17-1.07-3.17-3.68v-4.75h1.53v-.02h0Z" style="fill: #036; stroke-width: 0px;"/>
      <path d="M36.15,96.67c.77-.13,1.53-.18,2.3-.18,1.2,0,1.99.2,2.56.66.48.41.74,1.05.71,1.69,0,.94-.61,1.79-1.51,2.07v.05c.61.23.97.79,1.15,1.61.18.79.38,1.56.66,2.33h-1.56c-.25-.64-.43-1.28-.56-1.97-.25-1.1-.64-1.43-1.48-1.46h-.77v3.43h-1.51v-8.23h0ZM37.66,100.32h.89c1.02,0,1.66-.53,1.66-1.38,0-.89-.64-1.33-1.61-1.33-.3,0-.64.02-.94.07v2.63h0Z" style="fill: #036; stroke-width: 0px;"/>
      <path d="M46.57,104.97c-2.35,0-3.83-1.79-3.83-4.21,0-2.56,1.61-4.34,3.96-4.34s3.83,1.84,3.83,4.19c0,2.79-1.69,4.37-3.96,4.37h0ZM46.62,103.77c1.46,0,2.3-1.35,2.3-3.09,0-1.56-.77-3.04-2.3-3.04s-2.3,1.43-2.3,3.09.84,3.04,2.3,3.04h0Z" style="fill: #036; stroke-width: 0px;"/>
      <path d="M57.78,104.59c-.69.25-1.43.38-2.17.36-2.63,0-4.24-1.66-4.24-4.19,0-2.74,1.92-4.37,4.44-4.37.69-.02,1.38.1,2.02.36l-.3,1.2c-.51-.2-1.07-.34-1.63-.3-1.69,0-2.91,1.07-2.91,3.07,0,1.81,1.05,2.99,2.89,2.99.56,0,1.12-.1,1.66-.3l.25,1.2v-.02Z" style="fill: #036; stroke-width: 0px;"/>
      <path d="M62.18,104.97c-2.35,0-3.83-1.79-3.83-4.21,0-2.56,1.61-4.34,3.96-4.34s3.86,1.84,3.86,4.19c0,2.79-1.69,4.37-3.98,4.37h0ZM62.25,103.77c1.46,0,2.3-1.35,2.3-3.09,0-1.56-.77-3.04-2.3-3.04s-2.3,1.43-2.3,3.09.84,3.04,2.3,3.04h0Z" style="fill: #036; stroke-width: 0px;"/>
      <path d="M67.44,104.84v-8.3h1.74l2.15,3.55c.53.89,1,1.84,1.4,2.79h.02c-.1-1.15-.16-2.3-.13-3.45v-2.89h1.4v8.3h-1.58l-2.17-3.65c-.53-.92-1.05-1.87-1.48-2.86h-.05c.05,1.07.07,2.17.07,3.52v2.97l-1.38.02h0Z" style="fill: #036; stroke-width: 0px;"/>
      <path d="M77.38,97.82h-2.38v-1.25h6.29v1.25h-2.4v7.05h-1.51v-7.05h0Z" style="fill: #036; stroke-width: 0px;"/>
      <path d="M82.26,96.67c.77-.13,1.53-.18,2.3-.18,1.2,0,1.99.2,2.56.66.48.41.74,1.05.71,1.69,0,.94-.61,1.79-1.51,2.07v.05c.61.23.97.79,1.15,1.61.18.79.38,1.56.64,2.33h-1.56c-.25-.64-.43-1.28-.56-1.97-.25-1.1-.64-1.43-1.48-1.46h-.77v3.43h-1.51l.02-8.23h0ZM83.76,100.32h.89c1.02,0,1.66-.53,1.66-1.38,0-.89-.64-1.33-1.61-1.33-.3,0-.64.02-.94.07v2.63h0Z" style="fill: #036; stroke-width: 0px;"/>
      <path d="M92.68,104.97c-2.35,0-3.83-1.79-3.83-4.21,0-2.56,1.61-4.34,3.96-4.34s3.86,1.84,3.86,4.19c-.02,2.79-1.71,4.37-3.98,4.37h0ZM92.73,103.77c1.46,0,2.3-1.35,2.3-3.09,0-1.56-.77-3.04-2.3-3.04s-2.3,1.43-2.3,3.09.84,3.04,2.3,3.04h0Z" style="fill: #036; stroke-width: 0px;"/>
      <path d="M97.94,96.54h1.51v7.02h3.43v1.25h-4.93v-8.28h0Z" style="fill: #036; stroke-width: 0px;"/>
    </g>
  </g>
</svg>